<?xml version="1.0" encoding="UTF-8"?>
<!DOCTYPE svg PUBLIC "-//W3C//DTD SVG 1.1//EN" "http://www.w3.org/Graphics/SVG/1.1/DTD/svg11.dtd">
<!-- Creator: CorelDRAW -->
<svg xmlns="http://www.w3.org/2000/svg" xml:space="preserve" width="210mm" height="297mm" version="1.1" style="shape-rendering:geometricPrecision; text-rendering:geometricPrecision; image-rendering:optimizeQuality; fill-rule:evenodd; clip-rule:evenodd"
viewBox="0 0 21000 29700"
 xmlns:xlink="http://www.w3.org/1999/xlink"
 xmlns:xodm="http://www.corel.com/coreldraw/odm/2003">
 <defs>
  <style type="text/css">
   <![CDATA[
    .fil0 {fill:white}
    .fil1 {fill:#2B2B2A}
   ]]>
  </style>
 </defs>
 <g id="Layer_x0020_1">
  <metadata id="CorelCorpID_0Corel-Layer"/>
  <path class="fil0" d="M10536.63 11340.77c102.56,33.27 3675.8,2.93 4133.52,13.34 1221.61,27.82 2221.16,583.45 2227.72,1920.34 6.49,1319.52 -1003.77,1910.77 -2208.44,1941.72 -683.26,17.53 -1384.66,2.9 -2069.87,2.9 -693.16,0 -1388.06,-4.85 -2081,0.62l-2.05 5144.89 1864.98 2.59 0.75 -3429.05c114.53,-34.31 1139.68,-10.85 1344.94,-10.85 446.54,0 906.17,15.03 1349.92,-30.7 730.21,-75.21 1454.22,-271.22 2084.27,-655.9 1338.48,-817.24 1842.87,-2281.76 1555.76,-3796.53 -270.21,-1425.57 -1427.37,-2389.01 -2814.43,-2662.66 -845.7,-166.83 -1766.98,-115.26 -2629.5,-115.26 -912.62,0 -1845.02,-18.7 -2755.21,2.76l-1.36 1671.79z"/>
  <path class="fil0" d="M6243.11 20406.62l2031.75 0.25c24.17,-274.53 6.69,-1485.59 6.69,-1856.41l2.01 -2315.45c2.12,-164.33 -55.73,-205.16 -138.98,-334l-1092.95 -1704.09c-984.8,-1493.64 -1937.38,-3025.81 -2905.2,-4532.34l-2084.89 -2.98c77.15,153.89 585.1,914.33 727.11,1139.44 237.34,376.19 482.46,761.24 728.2,1131.59 740.94,1116.67 1453.78,2290.05 2191,3403.07 75.47,113.92 518.96,763.51 528.42,872.74 11.51,132.62 -0.02,327.86 0,467.55l0 2797.08c0,292.74 -18.16,648.38 6.84,933.55z"/>
  <path class="fil0" d="M8036.54 13188.57l1093.13 1476.55c79.18,-70.05 2326.78,-3488.52 2494.41,-3743.02 175.54,-266.48 717.92,-1049.21 831.04,-1258.27l-1951.78 -2.23 -2466.8 3526.97z"/>
  <path class="fil1" d="M-4503.25 25493.94c37.59,7.12 30.09,5.41 38.32,41.9l71.91 0c-15.82,-51.12 -63.94,-112.59 -110.23,-135.18l0 93.28z"/>
  <path class="fil1" d="M-4503.25 4644.06c46.87,-22.07 46.92,-25.9 58.48,-78.99l-58.48 0 0 78.99z"/>
  <path class="fil0" d="M27367.63 25535.84l53.9 0 0 -59.95c-39.87,18.33 -38.47,16.48 -53.9,59.95z"/>
  <path class="fil1" d="M-4503.25 25535.84l38.32 0c-8.23,-36.49 -0.73,-34.78 -38.32,-41.9l0 41.9z"/>
 </g>
</svg>
